PathFileType	4	(X/Y/Z)	D:\Share\Shared_Data\Ergonomics\Sit To Stand Pertubation\S2\Perturbed.trc
DataRate	CameraRate	NumFrames	NumMarkers	Units	OrigDataRate	OrigDataStartFrame	OrigNumFrames	
100	100	19	18	m	100	13561	241
Frame#	Time	R_Toe			R_ASIS			R_Pelvis			V_Sacral			L_Pelvis			L_ASIS			Clavical			R_Acromium			L_Acromium			Sternum			Torso			R_Thigh_Med			R_Thigh_Lat			R_Thigh			R_Shank_Med			R_Shank_Lat			R_Shank			R_Heel			
		X1	Y1	Z1	X2	Y2	Z2	X3	Y3	Z3	X4	Y4	Z4	X5	Y5	Z5	X6	Y6	Z6	X7	Y7	Z7	X8	Y8	Z8	X9	Y9	Z9	X10	Y10	Z10	X11	Y11	Z11	X12	Y12	Z12	X13	Y13	Z13	X14	Y14	Z14	X15	Y15	Z15	X16	Y16	Z16	X17	Y17	Z17	X18	Y18	Z18	

13561	135.6	0.42980692	0.064432457	0.14472073	0.42897601	1.0291254	0.14368121	0.35324643	1.0272454	0.19072359	0.20550815	1.0193799	0.035851059	0.29168884	1.0266543	-0.14892044	0.38890088	1.0396329	-0.1311008	0.41170267	1.4584124	0.01014396	0.32289975	1.4776345	0.22299741	0.28596036	1.4859226	-0.16566817	0.4620191	1.3007795	0.0010472339	0.41329028	1.4204053	-0.10607727	0.34504404	0.49536948	0.093592842	0.32990952	0.52080347	0.18266136	0.42645581	0.68004535	0.16492267	0.29632892	0.10895919	0.10523828	0.27084393	0.10038139	0.19571964	0.29265842	0.37571741	0.21373912	0.19222841	0.061571251	0.14587085
13562	135.61	0.42980032	0.064419601	0.14474135	0.43106705	1.0287217	0.14365338	0.35551804	1.0267391	0.19086565	0.20761201	1.0179151	0.036003677	0.29346494	1.0255112	-0.14891222	0.39061349	1.0389241	-0.13113908	0.41127203	1.4578696	0.0099003553	0.32213049	1.4765321	0.22272131	0.28541525	1.4845924	-0.16593602	0.46235165	1.3004496	0.00086688936	0.41304614	1.4197594	-0.10631473	0.34400723	0.49535144	0.093421242	0.32934128	0.52071509	0.18263258	0.42698932	0.6794704	0.164283	0.2962861	0.10889088	0.105201	0.27076584	0.1003685	0.19566373	0.29198386	0.37574982	0.21384863	0.19222917	0.061544655	0.14585063
13563	135.62	0.42979892	0.064405365	0.14475945	0.43301251	1.028335	0.14362856	0.35762424	1.0262452	0.1910036	0.20954245	1.0165664	0.036178764	0.29506915	1.0244725	-0.14888968	0.39216086	1.0382871	-0.13117557	0.41089905	1.4573562	0.0096498461	0.32142889	1.4754808	0.22244063	0.2849458	1.4833284	-0.16621616	0.46266666	1.3001338	0.0006917519	0.41284406	1.4191372	-0.10655529	0.34313892	0.49532941	0.09328479	0.32896674	0.52061713	0.18263753	0.42762476	0.67893567	0.16371922	0.29625693	0.10883798	0.1051754	0.27070828	0.10035824	0.19562073	0.29148987	0.37577875	0.21397101	0.19223192	0.061529125	0.1458396
13564	135.63	0.42980405	0.064389229	0.14477379	0.43480264	1.0279867	0.1436053	0.3595625	1.0257858	0.19113988	0.21129718	1.0153718	0.036389347	0.2964921	1.0235742	-0.14883545	0.39353433	1.0377505	-0.1312097	0.41058276	1.4569038	0.0093949137	0.32079276	1.4745186	0.22215758	0.28454803	1.4821639	-0.16650702	0.46296341	1.2998625	0.00052283698	0.41268353	1.4185721	-0.10679845	0.34248599	0.49530682	0.09318351	0.32880594	0.52051715	0.18266402	0.42835785	0.67845953	0.16323172	0.29624792	0.10880436	0.10515905	0.27067514	0.10035466	0.19558775	0.29119992	0.37580573	0.21409283	0.1922381	0.061527676	0.1458364
13565	135.64	0.4298168	0.064370651	0.14478333	0.43643134	1.0276975	0.1435833	0.36133618	1.0253831	0.19127692	0.21287999	1.0143652	0.036642796	0.29773242	1.0228479	-0.14873689	0.39473383	1.0373408	-0.13123926	0.41032193	1.4565399	0.0091394987	0.32022067	1.4736829	0.22187502	0.28421948	1.4811296	-0.16680602	0.46324554	1.2996633	0.00036112335	0.4125661	1.4180952	-0.10704255	0.34208871	0.4952894	0.09311396	0.32887109	0.5204231	0.18269798	0.4291796	0.67805933	0.16281721	0.29626321	0.10879079	0.10514627	0.27066989	0.10036251	0.19555942	0.29112866	0.37583362	0.2141989	0.19224976	0.061543484	0.14583774
13566	135.65	0.42983774	0.064349159	0.1447876	0.43789575	1.0274852	0.14356367	0.36295251	1.0250575	0.19141623	0.2142986	1.0135724	0.036938271	0.2987977	1.022315	-0.14859001	0.3957681	1.037077	-0.13126088	0.41011548	1.4562853	0.0088886509	0.31971234	1.4730084	0.22159633	0.2839595	1.4802509	-0.16710915	0.46352118	1.2995576	0.00020821045	0.41249609	1.4177321	-0.10728409	0.34197226	0.49528397	0.093068199	0.32916409	0.52034229	0.18272485	0.43007806	0.67774963	0.16247099	0.2963035	0.10879496	0.10512937	0.27069504	0.10038666	0.19552879	0.29127814	0.375866	0.2142747	0.19226917	0.061579414	0.14583931
13567	135.66	0.42986655	0.064324638	0.14478667	0.43919568	1.0273618	0.14354924	0.36442041	1.0248243	0.19155679	0.21556314	1.0130059	0.037265396	0.29970465	1.0219835	-0.14840085	0.39665363	1.0369675	-0.13127139	0.40996313	1.456149	0.0086482515	0.31926852	1.4725223	0.221325	0.28376959	1.4795448	-0.16741222	0.4638009	1.2995571	6.7326948e-05	0.41248047	1.4174994	-0.10751759	0.34214304	0.49529672	0.093036102	0.32967459	0.52028101	0.18273181	0.43103876	0.67753918	0.16218919	0.29636658	0.10881209	0.10509999	0.2707515	0.10043128	0.19548839	0.29163531	0.37590689	0.21430827	0.19229785	0.061637463	0.14583646
13568	135.67	0.42990237	0.06429763	0.14478094	0.44033362	1.0273326	0.14354414	0.36574695	1.0246913	0.19169472	0.21668503	1.0126605	0.037603882	0.30047711	1.0218448	-0.14818349	0.39741229	1.0370065	-0.13126904	0.40986569	1.4561284	0.0084249096	0.31889072	1.4722412	0.22106377	0.2836532	1.4790193	-0.16771153	0.46409467	1.2996617	-5.6259628e-05	0.41252734	1.4174022	-0.10773573	0.34258859	0.49533167	0.093008301	0.33037939	0.52024347	0.18270976	0.43204517	0.67742957	0.16197008	0.2964483	0.10883631	0.10505061	0.2708381	0.10049901	0.19543143	0.29217316	0.37595987	0.21429135	0.19233643	0.061718266	0.14582512
13569	135.68	0.42994354	0.064269325	0.14477074	0.44131464	1.027395	0.14355365	0.3669346	1.0246558	0.19182434	0.21767641	1.0125121	0.037925549	0.30114352	1.0218746	-0.14795633	0.39806937	1.0371747	-0.13125385	0.40982465	1.4562086	0.0082256184	0.31858072	1.4721677	0.22081458	0.28361661	1.4786708	-0.16800429	0.46440948	1.2998602	-0.00015551417	0.41264392	1.4174327	-0.10793023	0.34328067	0.49538971	0.092977402	0.33124362	0.52023169	0.18265462	0.43307846	0.67741516	0.16181415	0.29654422	0.10886223	0.10497601	0.27095145	0.10059029	0.1953528	0.29285376	0.37602753	0.21421991	0.19238438	0.061820877	0.14580191
13570	135.69	0.42998782	0.064241119	0.14475613	0.44214774	1.0275393	0.14358331	0.36798135	1.0247064	0.19194008	0.21854947	1.0125201	0.038199898	0.30173364	1.0220338	-0.14773776	0.39865094	1.0374419	-0.13122745	0.40984146	1.4563665	0.0080568724	0.31834058	1.4722911	0.22057912	0.28366837	1.4784845	-0.16828819	0.46474796	1.3001307	-0.00022249891	0.41283441	1.4175702	-0.10809339	0.34417889	0.49546814	0.092938324	0.33222406	0.52024445	0.18256715	0.43411807	0.67748322	0.16172388	0.2966507	0.10888609	0.10487413	0.27108588	0.10070309	0.19525011	0.2936337	0.37611026	0.21409462	0.19244035	0.061942722	0.1457646
13571	135.7	0.43003271	0.06421431	0.14473712	0.4428457	1.0277482	0.14363759	0.36888193	1.0248226	0.19203831	0.2193161	1.0126328	0.038401337	0.30227603	1.0222757	-0.14754327	0.39918253	1.0377705	-0.13119269	0.40991629	1.4565746	0.0079236507	0.31817273	1.472588	0.22035912	0.28381812	1.4784363	-0.16856	0.46510828	1.3004448	-0.00024963354	0.41309933	1.4177848	-0.1082193	0.34523395	0.49556134	0.092889183	0.33327402	0.52027826	0.18245238	0.43514142	0.67761499	0.16170284	0.29676523	0.10890615	0.10474651	0.27123404	0.10083303	0.19512393	0.29446899	0.37620648	0.21392047	0.19250249	0.062079731	0.14571198
13572	135.71	0.43007593	0.064190002	0.14471414	0.44342422	1.0280006	0.14371809	0.36963129	1.0249788	0.19211841	0.21998796	1.0127953	0.038514179	0.30279517	1.022551	-0.14738429	0.39968665	1.0381216	-0.13115318	0.41004694	1.4568049	0.0078288708	0.31807883	1.4730249	0.22015665	0.28407394	1.4784957	-0.16881544	0.46548419	1.3007728	-0.0002309594	0.41343558	1.418042	-0.10830429	0.34639151	0.49566168	0.09283197	0.33434705	0.52032745	0.18231854	0.43612546	0.67778833	0.16175404	0.29688571	0.1089222	0.10459803	0.2713876	0.10097389	0.19497752	0.29531876	0.37631241	0.2137066	0.19256873	0.062226658	0.14564433
13573	135.72	0.43011591	0.064168892	0.14468829	0.44390048	1.0282721	0.14382314	0.37022873	1.0251479	0.19218246	0.2205768	1.0129577	0.038533817	0.30330948	1.0228154	-0.1472679	0.40018143	1.0384591	-0.1311129	0.41022925	1.4570315	0.0077733517	0.31805862	1.4735591	0.21997449	0.28444046	1.4786294	-0.16905072	0.46586676	1.3010847	-0.00016326194	0.41383667	1.4183064	-0.10834709	0.34759674	0.49576093	0.092771973	0.3353999	0.5203847	0.18217526	0.43704868	0.67798041	0.16187756	0.29700909	0.10893459	0.10443614	0.27153842	0.10111857	0.19481656	0.29614676	0.37642224	0.21346613	0.19263724	0.06237735	0.1455643
13574	135.73	0.43015179	0.064151077	0.14466125	0.44429276	1.0285391	0.14394844	0.3706825	1.0253051	0.19223395	0.22109479	1.0130813	0.03846566	0.30383112	1.0230352	-0.14719719	0.40067984	1.0387539	-0.13107533	0.41045831	1.4572325	0.0077556763	0.31810876	1.4741449	0.21981546	0.28491711	1.4788021	-0.16926407	0.46624661	1.3013552	-4.6806116e-05	0.4142941	1.4185464	-0.1083491	0.34879813	0.49585159	0.092715561	0.33639453	0.52044257	0.18203239	0.43789374	0.67817053	0.16206891	0.29713095	0.10894325	0.10426964	0.27167923	0.10126007	0.19464841	0.29692218	0.3765293	0.21321518	0.19270642	0.062525124	0.14547653
13575	135.74	0.43018323	0.064136055	0.14463501	0.44461951	1.0287806	0.1440887	0.37101157	1.0254312	0.19227573	0.22155499	1.0131421	0.038323105	0.30436746	1.0231899	-0.14717163	0.40119064	1.0389862	-0.13104263	0.41072998	1.4573914	0.0077721171	0.31822232	1.4747354	0.21968098	0.28549762	1.4789808	-0.16945596	0.46661661	1.3015652	0.00011449467	0.41479819	1.4187362	-0.10831442	0.34994925	0.49592764	0.092667656	0.33729898	0.52049384	0.18189861	0.43864902	0.67834155	0.16231842	0.29724655	0.10894775	0.10410752	0.27180432	0.10139212	0.19448122	0.29761996	0.37662723	0.21296983	0.19277472	0.062663437	0.14538615
13576	135.75	0.43020999	0.064123001	0.14461165	0.44489932	1.0289802	0.14423837	0.37124377	1.025515	0.19230994	0.22197113	1.0131317	0.038124763	0.30492166	1.023272	-0.14718843	0.40171875	1.0391462	-0.13101518	0.41104031	1.4574966	0.0078173585	0.31838828	1.4752872	0.2195703	0.28616922	1.4791366	-0.16962886	0.46697397	1.3017026	0.00031324372	0.41533914	1.4188579	-0.10824924	0.35100949	0.49598441	0.092630486	0.33808884	0.52053284	0.18178062	0.43930807	0.67848059	0.16261214	0.29735248	0.1089478	0.10395782	0.27190982	0.10150922	0.19432283	0.29822238	0.37671127	0.21274327	0.19284013	0.06278661	0.14529729
13577	135.76	0.43023193	0.06411097	0.14459309	0.44514957	1.0291276	0.14439169	0.3714108	1.0255514	0.19233841	0.22235605	1.0130558	0.037890934	0.30549374	1.0232844	-0.14724277	0.40226572	1.0392314	-0.130992	0.41138507	1.4575428	0.0078857346	0.31859268	1.4757633	0.21948108	0.28691318	1.4792466	-0.16978613	0.46732025	1.3017626	0.0005392043	0.41590756	1.4189015	-0.10816094	0.35194498	0.49601898	0.092604187	0.33874753	0.52055585	0.1816823	0.43986829	0.67857867	0.16293272	0.29744693	0.1089431	0.10382629	0.27199353	0.10160669	0.1941796	0.29871896	0.37677863	0.2125446	0.19290016	0.062890701	0.14521307
13578	135.77	0.4302489	0.064099136	0.14458084	0.44538519	1.0292175	0.14454276	0.37154327	1.0255414	0.19236316	0.22272084	1.0129302	0.037640007	0.30608102	1.0232372	-0.14732799	0.40283026	1.0392457	-0.13097113	0.41175836	1.4575292	0.007972014	0.31881943	1.4761368	0.21941013	0.28770685	1.4792957	-0.16993073	0.46766034	1.3017465	0.00078081924	0.41649509	1.4188645	-0.10805743	0.35272952	0.49603009	0.092587608	0.33926685	0.52056091	0.18160471	0.4403299	0.6786308	0.16325999	0.29752902	0.1089334	0.10371587	0.2720546	0.1016811	0.19405588	0.29910559	0.376828	0.21237985	0.19295229	0.062973743	0.14513651
13579	135.78	0.43026065	0.064086967	0.14457559	0.44561761	1.0292483	0.14468518	0.37166754	1.0254895	0.19238567	0.22307506	1.0127759	0.037386181	0.30667841	1.0231446	-0.14743582	0.40340805	1.0391969	-0.13095076	0.41215308	1.4574576	0.008071497	0.31905261	1.4763909	0.21935397	0.2885278	1.4792766	-0.17006415	0.46799982	1.3016593	0.0010270466	0.41709412	1.4187516	-0.10794628	0.35334454	0.49601782	0.092577972	0.33964603	0.52054797	0.1815464	0.44069589	0.67863464	0.16357225	0.29759769	0.10891862	0.10362722	0.27209348	0.10173077	0.1939538	0.29938333	0.37685898	0.21225198	0.19299448	0.063034943	0.14507051
